<svg width="24" height="24" viewBox="0 0 24 24" fill="none" xmlns="http://www.w3.org/2000/svg">
<circle cx="12" cy="12" r="12" fill="#A3EA28"/>
<path d="M11.9846 3.00006C11.8408 3.00229 11.7007 3.04243 11.5811 3.11568C11.4615 3.18894 11.3674 3.2922 11.3101 3.41315L6.16778 11.4952C6.06726 11.6086 6.00881 11.7484 6.00092 11.8944C5.99303 12.0403 6.0361 12.1847 6.12389 12.3067V12.308C6.12909 12.3157 6.13445 12.3233 6.13998 12.3308L11.3321 19.1307L11.3335 19.1334C11.3971 19.244 11.4925 19.3366 11.6093 19.4013C11.7261 19.4659 11.8599 19.5 11.9963 19.5C12.1327 19.5 12.2665 19.4659 12.3833 19.4013C12.5001 19.3366 12.5954 19.244 12.659 19.1334L17.8526 12.3308C17.8555 12.3268 17.8585 12.3228 17.8613 12.3187L17.8628 12.3161C17.9628 12.1863 18.0106 12.0287 17.998 11.8702C17.9855 11.7118 17.9134 11.5622 17.794 11.447L12.6795 3.40913C12.6201 3.28601 12.5226 3.1816 12.3991 3.10888C12.2755 3.03615 12.1314 2.99831 11.9846 3.00006ZM11.2472 6.23504V12.4006L7.88531 11.5194L11.2472 6.23504ZM12.7453 6.23504L16.1072 11.5194L12.7453 12.4006V6.23504ZM8.5773 13.1275L11.2472 13.8276V14.0261V16.6254L8.5773 13.1275ZM15.4152 13.1275L12.7453 16.6254V14.0261V13.8276L15.4152 13.1275Z" fill="black"/>
</svg>
