<svg xmlns="http://www.w3.org/2000/svg" width="12" height="17" fill="none"><path fill="#000" d="M5.985 0a.798.798 0 0 0-.404.116.705.705 0 0 0-.27.297L.167 8.495a.645.645 0 0 0-.044.811v.002a.7.7 0 0 0 .016.023l5.192 6.8.002.002c.063.111.158.204.275.268a.801.801 0 0 0 .774 0 .717.717 0 0 0 .276-.268l5.194-6.802.008-.012.002-.003a.645.645 0 0 0-.069-.869L6.679.409a.707.707 0 0 0-.28-.3A.8.8 0 0 0 5.985 0Zm-.738 3.235v6.166l-3.362-.882 3.362-5.284Zm1.498 0 3.362 5.284-3.362.882V3.235Zm-4.168 6.893 2.67.7v2.798l-2.67-3.498Zm6.838 0-2.67 3.497v-2.797l2.67-.7Z"/></svg>