<svg viewBox="0 0 153 51" fill="none" xmlns="http://www.w3.org/2000/svg">
  <path d="M8.33697 0H0V36.3992H8.33697V0Z" fill="#F4F2E9"  />
  <path d="M8.33696 0L18.6581 36.3992H27.3286L17.0074 0H8.33696Z" fill="#F4F2E9" />
  <path d="M35.7489 0H27.4119V36.3992H35.7489V0Z" fill="#F4F2E9" />
  <path d="M35.7489 0L46.0701 36.3992H54.7405L44.4194 0H35.7489Z" fill="#F4F2E9" />
  <path d="M88.7053 36.3992H80.0349L77.1169 26.0947H69.697V36.3992H61.3601V0H69.697V18.3413H74.8993L69.697 0H78.3675L88.7053 36.3992Z" fill="#F4F2E9" />
  <path d="M153 36.3992H144.33L141.412 26.0947H134.008V36.3992H125.671V0H134.008V18.3413H139.211L134.008 0H142.679L153 36.3992Z" fill="#F4F2E9" />
  <path d="M115.9 0H107.564V50.0218H115.9V0Z" fill="#F4F2E9" />
  <path d="M107.564 36.3992L97.2257 0H88.5553L98.8931 36.3992H107.564Z" fill="#F4F2E9" />
</svg>
