<svg xmlns="http://www.w3.org/2000/svg" fill="none" viewBox="0 0 134 119"><path fill="url(#a)" d="M63.973 18.3a8.67 8.67 0 0 0-4.177 7.374l.245 22.493-.102 15.131.246 22.492a8.685 8.685 0 0 1-4.177 7.375l-15.309 9.089a8.432 8.432 0 0 1-4.117 1.172 8.46 8.46 0 0 1-4.166-.999l-15.169-8.6a7.955 7.955 0 0 1-4.108-7.199l.016-17.472a8.685 8.685 0 0 1 4.177-7.375l14.972-8.993a8.433 8.433 0 0 1 4.117-1.172 8.454 8.454 0 0 1 4.166 1l9.827 5.571-.112-15.252-9.828-5.572a7.95 7.95 0 0 0-4.167-1.08 7.928 7.928 0 0 0-4.115 1.253L4.209 54.054a8.678 8.678 0 0 0-4.176 7.375l-.03 32.944a7.952 7.952 0 0 0 4.108 7.198l28.416 16.111a7.949 7.949 0 0 0 8.283-.173l28.229-16.952a8.675 8.675 0 0 0 4.177-7.375l-.032-22.37-.112-15.253-.032-22.371a8.677 8.677 0 0 1 4.177-7.376L92.19 16.82a8.453 8.453 0 0 1 8.283-.172l15.169 8.6a7.94 7.94 0 0 1 4.108 7.198l.199 17.594a8.683 8.683 0 0 1-4.178 7.375l-14.972 8.993a8.433 8.433 0 0 1-4.117 1.172 8.457 8.457 0 0 1-4.165-1l-9.83-5.572.113 15.252 9.828 5.572a7.948 7.948 0 0 0 4.167 1.08 7.925 7.925 0 0 0 4.115-1.252l28.229-16.953a8.676 8.676 0 0 0 4.178-7.375l.027-32.941a8.457 8.457 0 0 0-4.109-7.198L100.82 1.082a7.951 7.951 0 0 0-4.168-1.08 7.928 7.928 0 0 0-4.115 1.252L63.973 18.299Z"/><defs><linearGradient id="a" x1="16.146" x2="117.228" y1="30.734" y2="87.98" gradientUnits="userSpaceOnUse"><stop stop-color="#A128C5"/><stop offset="1" stop-color="#7C3FE3"/></linearGradient></defs></svg>