<svg xmlns="http://www.w3.org/2000/svg" width="23" height="23" fill="none">
  <path fill="#FFEEDA" d="M20.773 15.296V2.006C20.756.895 19.891 0 18.805 0H5.268C2.348.045 0 2.495 0 5.496c0 1.013.265 1.88.67 2.64.345.633.883 1.23 1.413 1.672.15.127.08.073.538.362a5.83 5.83 0 0 0 1.359.597l-.009 7.946c.018.38.053.741.15 1.076.3 1.12 1.06 1.98 2.092 2.395.432.172.917.29 1.438.299l10.81.036c2.154 0 3.9-1.79 3.9-4.005a4.02 4.02 0 0 0-1.588-3.218Z"/>
  <path fill="#EBC28E" d="M21.038 18.613c-.044 1.42-1.183 2.56-2.577 2.56l-7.439-.028a4.06 4.06 0 0 0 .953-2.613c0-1.564-.909-2.64-.909-2.64h7.404c1.42 0 2.577 1.184 2.577 2.64l-.009.081Z"/>
  <path fill="#101010" d="M2.789 8.687c-.856-.831-1.456-1.907-1.456-3.182V5.37c.07-2.18 1.817-3.933 3.944-3.996h13.537c.353.018.636.271.636.642V13.75c.309.054.459.1.759.208.238.09.564.28.564.28V2.016C20.756.904 19.891.009 18.805.009H5.268C2.348.054 0 2.504 0 5.505 0 7.25.777 8.742 2.047 9.79c.089.073.168.163.397.163.398 0 .68-.325.662-.678-.009-.298-.132-.407-.317-.588Z"/>
  <path fill="#101010" d="M18.46 14.518H7.846a1.314 1.314 0 0 0-1.288 1.33v1.563c.017.723.618 1.338 1.332 1.338h.786v-1.338h-.786v-1.528h.433c1.34 0 2.33 1.275 2.33 2.64 0 1.211-1.077 2.757-2.877 2.63-1.598-.108-2.462-1.563-2.462-2.63V5.27c0-.597-.477-1.085-1.06-1.085H3.196v1.356h.785v12.991c-.044 2.64 1.836 3.97 3.795 3.97l10.695.035c2.153 0 3.9-1.79 3.9-4.005s-1.756-4.014-3.91-4.014Zm2.578 4.095c-.044 1.42-1.182 2.56-2.577 2.56l-7.44-.028a4.06 4.06 0 0 0 .954-2.613c0-1.564-.91-2.64-.91-2.64h7.405c1.42 0 2.577 1.185 2.577 2.64l-.01.081ZM15.602 5.786H7.598V4.43h8.004a.67.67 0 0 1 .662.678.67.67 0 0 1-.662.678Z"/>
  <path fill="#101010" d="M15.602 12.167H7.598v-1.355h8.004a.67.67 0 0 1 .662.678.669.669 0 0 1-.662.677Zm1.412-3.19H7.598V7.621h9.407a.67.67 0 0 1 .662.678.662.662 0 0 1-.653.678Z"/>
</svg>
