<svg xmlns="http://www.w3.org/2000/svg" width="40" height="40" fill="none">
  <path fill="#0C0C4F" fill-rule="evenodd" d="M0 20c0 11.046 8.954 20 20 20s20-8.954 20-20S31.047 0 20 0 0 8.954 0 20Z" clip-rule="evenodd"/>
  <path fill="#FAFAFA" fill-rule="evenodd" d="m11.178 15.288.493-1.525c.1-.31.346-.552.657-.647l1.533-.471c.212-.065.214-.364.003-.432l-1.526-.494a.999.999 0 0 1-.646-.657L11.22 9.53c-.065-.212-.364-.214-.433-.003l-.493 1.525a.999.999 0 0 1-.657.647l-1.533.47a.227.227 0 0 0-.003.433l1.526.494a1 1 0 0 1 .646.657l.471 1.532a.227.227 0 0 0 .433.003Z" clip-rule="evenodd"/>
  <path fill="url(#a)" fill-rule="evenodd" d="M35.405 14.4c-.632-.706-1.618-1.104-2.577-1.267a8.855 8.855 0 0 0-2.934.028c-1.93.326-3.684 1.125-5.213 2.111-.795.484-1.472 1.044-2.174 1.615-.338.288-.646.595-.968.898l-.877.873c-.953.996-1.893 1.904-2.802 2.656-.912.749-1.766 1.317-2.607 1.715-.84.399-1.74.634-2.912.671-1.161.041-2.536-.169-4.006-.515-1.479-.344-3.031-.835-4.766-1.258.606 1.68 1.517 3.163 2.687 4.52 1.184 1.332 2.663 2.547 4.562 3.346 1.872.817 4.224 1.11 6.423.668 2.205-.425 4.14-1.445 5.705-2.625 1.568-1.192 2.837-2.55 3.906-3.962.296-.39.452-.609.665-.914l.591-.875c.41-.54.784-1.157 1.19-1.693.797-1.123 1.582-2.244 2.495-3.278a13.94 13.94 0 0 1 1.515-1.507 7.99 7.99 0 0 1 .934-.672 4.43 4.43 0 0 1 1.163-.534Z" clip-rule="evenodd"/>
  <path fill="#0C0C4F" fill-rule="evenodd" d="M0 20c0 11.046 8.954 20 20 20s20-8.954 20-20S31.047 0 20 0 0 8.954 0 20Z" clip-rule="evenodd"/>
  <path fill="#FAFAFA" fill-rule="evenodd" d="m11.178 15.288.493-1.525c.1-.31.346-.552.657-.647l1.533-.471c.212-.065.214-.364.003-.432l-1.526-.494a.999.999 0 0 1-.646-.657L11.22 9.53c-.065-.212-.364-.214-.433-.003l-.493 1.525a.999.999 0 0 1-.657.647l-1.533.47a.227.227 0 0 0-.003.433l1.526.494a1 1 0 0 1 .646.657l.471 1.532a.227.227 0 0 0 .433.003Z" clip-rule="evenodd"/>
  <path fill="url(#b)" fill-rule="evenodd" d="M35.405 14.4c-.632-.706-1.618-1.104-2.577-1.267a8.855 8.855 0 0 0-2.934.028c-1.93.326-3.684 1.125-5.213 2.111-.795.484-1.472 1.044-2.174 1.615-.338.288-.646.595-.968.898l-.877.873c-.953.996-1.893 1.904-2.802 2.656-.912.749-1.766 1.317-2.607 1.715-.84.399-1.74.634-2.912.671-1.161.041-2.536-.169-4.006-.515-1.479-.344-3.031-.835-4.766-1.258.606 1.68 1.517 3.163 2.687 4.52 1.184 1.332 2.663 2.547 4.562 3.346 1.872.817 4.224 1.11 6.423.668 2.205-.425 4.14-1.445 5.705-2.625 1.568-1.192 2.837-2.55 3.906-3.962.296-.39.452-.609.665-.914l.591-.875c.41-.54.784-1.157 1.19-1.693.797-1.123 1.582-2.244 2.495-3.278a13.94 13.94 0 0 1 1.515-1.507 7.99 7.99 0 0 1 .934-.672 4.43 4.43 0 0 1 1.163-.534Z" clip-rule="evenodd"/>
  <path fill="#FAFAFA" fill-rule="evenodd" d="M35.405 14.4c-.68-1.713-1.941-3.155-3.635-4.219-1.684-1.052-4.022-1.589-6.34-1.131a10.383 10.383 0 0 0-3.226 1.215 13.495 13.495 0 0 0-2.589 1.976 20.29 20.29 0 0 0-1.054 1.133l-.877 1.118-1.354 1.8c-1.727 2.315-3.586 5.029-6.638 5.833-2.995.79-4.294.09-6.123-.198.335.863.749 1.7 1.31 2.438a9.687 9.687 0 0 0 2.01 2.065c.41.29.841.578 1.32.821.478.235.993.442 1.542.598 1.093.3 2.323.405 3.514.244a10.569 10.569 0 0 0 3.326-1.039 14.005 14.005 0 0 0 2.657-1.74c1.55-1.288 2.757-2.71 3.776-4.15.512-.718.977-1.451 1.408-2.184l.506-.872c.155-.256.312-.512.47-.751.642-.96 1.27-1.73 2.032-2.308.752-.593 1.799-1.031 3.197-1.133 1.394-.103 3.002.087 4.768.484Z" clip-rule="evenodd"/>
  <path fill="#EC796B" fill-rule="evenodd" d="M27.869 28.633a2.279 2.279 0 1 0 4.557-.001 2.279 2.279 0 0 0-4.557 0Z" clip-rule="evenodd"/>
  <defs>
    <linearGradient id="a" x1="35.234" x2="-16.792" y1="13.8" y2="40.868" gradientUnits="userSpaceOnUse">
      <stop stop-color="#EC796B"/>
      <stop offset="1" stop-color="#D672EF"/>
    </linearGradient>
    <linearGradient id="b" x1="35.234" x2="-16.792" y1="13.8" y2="40.868" gradientUnits="userSpaceOnUse">
      <stop stop-color="#EC796B"/>
      <stop offset="1" stop-color="#D672EF"/>
    </linearGradient>
  </defs>
</svg>
