<svg viewBox="0 0 1181 314" fill="none" xmlns="http://www.w3.org/2000/svg">
<path d="M544.199 314L544.199 0.00012207L472.184 0.000115388L472.184 314L544.199 314Z" fill="#E0FF80"/>
<path d="M544.293 4.58194e-05L633.405 314L708.264 314L619.152 5.27659e-05L544.293 4.58194e-05Z" fill="#E0FF80"/>
<path d="M308.107 314L308.107 0.00012207L236.092 0.000115388L236.092 314L308.107 314Z" fill="#A3EA28"/>
<path d="M308.201 0.000106853L397.313 314L472.184 314L383.072 0.000113801L308.201 0.000106853Z" fill="#A3EA28"/>
<path d="M72.0154 314L72.0154 0.00012207L5.34058e-05 0.000115388L4.69404e-05 314L72.0154 314Z" fill="#A3EA28"/>
<path d="M72.1205 0.000106855L161.233 314L236.092 314L146.979 0.000113801L72.1205 0.000106855Z" fill="#A3EA28"/>
<path d="M1016.38 314L1016.38 0.00012207L944.36 0.000115388L944.36 314L1016.38 314Z" fill="#E0FF80"/>
<path d="M1016.47 4.58194e-05L1105.58 314L1180.44 314L1091.33 5.27659e-05L1016.47 4.58194e-05Z" fill="#E0FF80"/>
<path d="M780.283 314L780.283 0.00012207L708.268 0.000115388L708.268 314L780.283 314Z" fill="#E0FF80"/>
<path d="M780.377 0.000106853L869.489 314L944.36 314L855.248 0.000113801L780.377 0.000106853Z" fill="#E0FF80"/>
<path d="M544.191 314L544.191 0.00012207L472.176 0.000115388L472.176 314L544.191 314Z" fill="#E0FF80"/>
<path d="M544.297 0.000106855L633.409 314L708.268 314L619.156 0.000113801L544.297 0.000106855Z" fill="#E0FF80"/>
</svg>
