<svg xmlns="http://www.w3.org/2000/svg" width="10" height="17" fill="none"><path fill="#000" d="M4.947 0a.844.844 0 0 0-.57.227.72.72 0 0 0-.228.532V2.08a7.83 7.83 0 0 0-.973.252c-.486.225-.892.45-1.216.75-.324.374-.649.673-.81 1.123-.244.374-.325.824-.325 1.349 0 .524.08.898.242 1.272.081.375.325.675.65.9.324.225.648.449 1.135.598.332.123.79.246 1.297.37v4.419c-.574-.15-1.05-.364-1.46-.743-.406-.375-.73-.974-.648-1.798H.5c.081 1.198.487 2.098 1.216 2.772.573.595 1.41.998 2.433 1.14v1.256a.7.7 0 0 0 .058.29c.04.092.1.176.175.247.076.07.166.127.265.165a.87.87 0 0 0 .89-.165.747.747 0 0 0 .175-.247.7.7 0 0 0 .058-.29v-1.213c.528-.032.956-.155 1.378-.285.487-.225.892-.45 1.217-.749.324-.3.648-.674.81-1.123.244-.375.325-.9.325-1.424 0-.524-.081-.973-.325-1.347a2.069 2.069 0 0 0-.728-.9c-.324-.3-.65-.449-.974-.598a5.875 5.875 0 0 0-.81-.3l-.893-.255V3.422c1.032.25 1.635.84 1.866 1.906h1.54c-.244-.974-.65-1.797-1.217-2.321-.535-.494-1.29-.846-2.189-.949V.76a.7.7 0 0 0-.06-.292.748.748 0 0 0-.178-.248.82.82 0 0 0-.268-.164A.87.87 0 0 0 4.947 0Zm-.798 3.48v3.752c-.17-.067-.34-.135-.486-.18-.244-.15-.488-.225-.65-.375-.162-.15-.324-.3-.405-.525-.081-.225-.162-.45-.162-.75 0-.598.162-1.122.567-1.421.318-.294.735-.447 1.136-.5ZM5.77 9.156c.213.076.414.164.65.218.243.075.485.225.728.375.244.15.407.299.488.524.081.224.162.525.162.825 0 .3-.08.673-.162.898-.081.3-.245.525-.488.675-.162.15-.485.3-.728.374-.177.054-.418.108-.65.162v-4.05Z"/></svg>