<svg width="24" height="24" viewBox="0 0 24 24" fill="none" xmlns="http://www.w3.org/2000/svg">
<circle cx="12" cy="12" r="12" fill="#A3EA28"/>
<path d="M11.9469 3.00009C11.7322 3.00319 11.5275 3.08488 11.3779 3.22724C11.2282 3.36959 11.1458 3.56097 11.1488 3.75938V5.08045C10.8244 5.13593 10.5008 5.2322 10.1764 5.33208C9.6899 5.55679 9.28448 5.78151 8.96014 6.08113C8.63581 6.45565 8.31147 6.75527 8.1493 7.20469C7.90605 7.57922 7.82465 8.02923 7.82465 8.55356C7.82465 9.07789 7.90479 9.45183 8.06695 9.82635C8.14804 10.2009 8.39192 10.5014 8.71626 10.7261C9.04059 10.9508 9.36525 11.1746 9.85175 11.3244C10.1843 11.4473 10.6428 11.5702 11.1488 11.6931V16.1128C10.5746 15.9635 10.0989 15.7486 9.68863 15.3696C9.28321 14.9951 8.95983 14.3955 9.04091 13.5716H7.5C7.58108 14.7701 7.9865 15.6698 8.71626 16.3439C9.28889 16.939 10.1264 17.3418 11.1488 17.4836V18.7403C11.1473 18.8395 11.1671 18.9381 11.2072 19.0302C11.2472 19.1223 11.3067 19.2061 11.3822 19.2768C11.4576 19.3475 11.5475 19.4036 11.6466 19.442C11.7458 19.4803 11.8522 19.5 11.9596 19.5C12.0671 19.5 12.1735 19.4803 12.2726 19.442C12.3717 19.4036 12.4616 19.3475 12.5371 19.2768C12.6125 19.2061 12.672 19.1223 12.7121 19.0302C12.7521 18.9381 12.772 18.8395 12.7705 18.7403V17.5275C13.2981 17.4953 13.7263 17.3721 14.1482 17.2422C14.6348 17.0175 15.0402 16.7928 15.3645 16.4932C15.6888 16.1935 16.0132 15.819 16.1753 15.3696C16.4186 14.9951 16.5 14.4704 16.5 13.9461C16.5 13.4218 16.4186 12.9732 16.1753 12.5987C16.0132 12.2242 15.7712 11.9237 15.4469 11.699C15.1225 11.3993 14.7972 11.2504 14.4729 11.1006C14.1486 10.9508 13.9053 10.8756 13.6621 10.8007L12.7705 10.5461V6.422C13.8025 6.6715 14.405 7.26108 14.636 8.32826H16.1753C15.9321 7.3545 15.5267 6.53085 14.9591 6.00651C14.4244 5.51259 13.6691 5.16132 12.7705 5.0585V3.75938C12.7719 3.65916 12.7516 3.55969 12.7108 3.46686C12.6699 3.37402 12.6093 3.2897 12.5325 3.2189C12.4557 3.1481 12.3643 3.09226 12.2637 3.05467C12.1631 3.01709 12.0554 2.99853 11.9469 3.00009ZM11.1488 6.48052V10.2316C10.9796 10.1651 10.8085 10.0966 10.6626 10.0517C10.4193 9.90184 10.1755 9.82694 10.0133 9.67713C9.85112 9.52732 9.68895 9.37663 9.60787 9.15192C9.52678 8.92721 9.44633 8.70249 9.44633 8.40287C9.44633 7.80364 9.60787 7.28048 10.0133 6.98086C10.3314 6.68698 10.7485 6.53387 11.1488 6.48052ZM12.7705 12.1554C12.9829 12.2315 13.1839 12.3189 13.4198 12.3734C13.663 12.4483 13.905 12.5981 14.1482 12.7479C14.3915 12.8977 14.5549 13.047 14.636 13.2717C14.7171 13.4964 14.7976 13.7972 14.7976 14.0968C14.7976 14.3964 14.7171 14.7703 14.636 14.9951C14.5549 15.2947 14.3915 15.5197 14.1482 15.6695C13.9861 15.8193 13.663 15.9691 13.4198 16.044C13.243 16.0985 13.0018 16.152 12.7705 16.2064V12.1554Z" fill="black"/>
</svg>
